<?xml version="1.0" encoding="utf-8"?>
<!-- Generator: Adobe Illustrator 26.5.0, SVG Export Plug-In . SVG Version: 6.00 Build 0)  -->
<svg version="1.1" id="Layer_1" xmlns:svgjs="http://svgjs.dev/svgjs"
	 xmlns="http://www.w3.org/2000/svg" xmlns:xlink="http://www.w3.org/1999/xlink" x="0px" y="0px" viewBox="0 0 98.9 21"
	 style="enable-background:new 0 0 98.9 21;" xml:space="preserve">
<style type="text/css">
	.st0{fill:#1E88E5;}
	.st1{fill:#1E88E5;fill-opacity:0.75;}
	.st2{fill:#1E88E5;fill-opacity:0.5;}
	.st3{display:none;fill:none;}
</style>
<g transform="matrix(1,0,0,1,-0.6060606060606233,0.3178705760067402)">
	<g id="tight-bounds" transform="matrix(1,0,0,1,0.2400000000000091,-0.12608274243842743)">
		<g>
			<g transform="matrix(1,0,0,1,0,12.479669549463651)">
				<g>
					<g>
						<g transform="matrix(1,0,0,1,0,0)">
							<path id="text-0" class="st0" d="M4.7,4.2L4.7,4.2H0.4V-8.5h4.4c1.9,0,3.5,0.6,4.7,1.8c1.2,1.2,1.8,2.6,1.8,4.4l0,0
								c0,2-0.6,3.6-1.8,4.8C8.2,3.6,6.7,4.2,4.7,4.2z M4.6-6.1L4.6-6.1H3.3v7.9h1.3c1.2,0,2.1-0.4,2.7-1.1C8,0,8.3-1,8.3-2.4l0,0
								c0-1.1-0.3-2-1-2.7C6.7-5.8,5.8-6.1,4.6-6.1z M22.6,0.8v2.8c-0.8,0.5-1.9,0.7-3.3,0.7l0,0c-1.9,0-3.4-0.6-4.7-1.8
								c-1.2-1.2-1.9-2.7-1.9-4.7l0,0c0-1.9,0.6-3.5,1.8-4.7c1.2-1.2,2.8-1.8,4.7-1.8l0,0c1.4,0,2.5,0.2,3.3,0.7l0,0v2.8
								c-0.9-0.6-2-0.9-3.1-0.9l0,0c-1,0-1.9,0.4-2.6,1.1c-0.7,0.7-1,1.7-1,2.9l0,0c0,1.2,0.3,2.1,1,2.8c0.7,0.7,1.6,1,2.7,1l0,0
								C20.7,1.7,21.7,1.4,22.6,0.8L22.6,0.8z M29.1-6.1L29.1-6.1h-1.4v3.6H29c1.3,0,1.9-0.6,1.9-1.8l0,0c0-0.5-0.2-1-0.5-1.3
								C30.1-6,29.6-6.1,29.1-6.1z M27.6-0.2v4.4h-2.9V-8.5h4.4c1.4,0,2.6,0.4,3.4,1.1c0.9,0.8,1.3,1.7,1.3,2.9l0,0
								c0,1.8-0.8,3.1-2.3,3.7l0,0l3.2,4.9h-3.5l-2.8-4.4H27.6z M48.2-2.2L48.2-2.2c0,1.9-0.6,3.5-1.7,4.7c-1.1,1.2-2.6,1.8-4.5,1.8
								l0,0c-1.9,0-3.4-0.6-4.5-1.8c-1.1-1.2-1.7-2.8-1.7-4.7l0,0c0-1.9,0.6-3.5,1.7-4.7c1.1-1.2,2.6-1.8,4.5-1.8l0,0
								c1.9,0,3.4,0.6,4.5,1.8S48.2-4.1,48.2-2.2z M39.8-5c-0.6,0.7-0.8,1.6-0.8,2.8s0.3,2.1,0.8,2.8c0.6,0.7,1.3,1,2.2,1
								c0.9,0,1.7-0.3,2.2-1C44.8,0,45.1-1,45.1-2.2S44.8-4.3,44.2-5c-0.6-0.7-1.3-1-2.2-1C41-6.1,40.3-5.7,39.8-5z M57.1,0.2
								l-1.2,4h-3.2L49.3-8.5h3l1.2,4.7c0.3,1,0.5,1.9,0.6,2.7c0.2,0.8,0.3,1.4,0.3,1.7l0,0L54.5,1c0.2-1,0.6-2.6,1.3-4.9l0,0
								L57-8.3h2.1l1.2,4.5c0.3,0.9,0.5,1.8,0.7,2.6c0.2,0.8,0.3,1.4,0.4,1.7l0,0L61.6,1c0.2-1.1,0.5-2.7,1.1-4.9l0,0l1.2-4.6h3
								L63.4,4.2h-3.2l-1.1-4c-0.3-1-0.5-1.8-0.6-2.4c-0.2-0.7-0.3-1.1-0.3-1.3l0,0l0-0.3C58.1-3.3,57.7-2,57.1,0.2L57.1,0.2z
								 M72.7,4.2L72.7,4.2h-4.3V-8.5h4.4c1.9,0,3.5,0.6,4.7,1.8c1.2,1.2,1.8,2.6,1.8,4.4l0,0c0,2-0.6,3.6-1.8,4.8
								C76.3,3.6,74.7,4.2,72.7,4.2z M72.7-6.1L72.7-6.1h-1.3v7.9h1.3c1.2,0,2.1-0.4,2.7-1.1c0.6-0.7,1-1.8,1-3.1l0,0
								c0-1.1-0.3-2-1-2.7C74.7-5.8,73.8-6.1,72.7-6.1z"/>
						</g>
					</g>
				</g>
			</g>
			<g transform="matrix(1,0,0,1,410.94487156313704,0)">
				<g>
					<rect x="-328.6" y="1.3" class="st0" width="4.9" height="18"/>
					<rect x="-322.6" y="1.3" class="st1" width="4.9" height="18"/>
					<rect x="-316.6" y="1.3" class="st2" width="4.9" height="18"/>
				</g>
			</g>
		</g>
		<rect x="0.4" y="1.3" class="st3" width="100" height="18"/>
	</g>
</g>
</svg>
